<?xml version="1.0" standalone="no"?>
<!DOCTYPE svg PUBLIC "-//W3C//DTD SVG 20010904//EN"
 "http://www.w3.org/TR/2001/REC-SVG-20010904/DTD/svg10.dtd">
<svg version="1.0" xmlns="http://www.w3.org/2000/svg"
 width="1920.000000pt" height="1920.000000pt" viewBox="0 0 1920.000000 1920.000000"
 preserveAspectRatio="xMidYMid meet">
<metadata>
Created by potrace 1.14, written by Peter Selinger 2001-2017
</metadata>
<g transform="translate(0.000000,1920.000000) scale(0.100000,-0.100000)"
fill="#000000" stroke="none">
<path d="M6166 13434 c-14 -13 -16 -51 -16 -264 0 -294 -5 -280 106 -280 l74
0 0 -84 c0 -69 4 -88 21 -109 l20 -27 172 -2 172 -3 5 -475 c4 -352 8 -475 17
-475 22 0 25 -14 4 -27 -20 -12 -20 -16 -21 -704 0 -619 1 -694 16 -708 20
-20 64 -20 111 -1 19 8 39 15 44 15 5 0 9 -45 9 -100 0 -94 2 -103 25 -125
l24 -25 -49 0 c-86 0 -80 50 -80 -658 0 -433 4 -632 11 -642 9 -13 10 -12 5 2
-6 19 9 34 19 18 7 -12 -19 -53 -28 -43 -4 3 -7 -203 -7 -460 0 -410 2 -467
16 -481 12 -12 37 -16 108 -16 l93 0 5 -70 c3 -38 11 -77 18 -85 11 -13 108
-15 796 -15 l784 0 14 23 c24 36 156 416 156 448 0 40 -24 49 -124 49 l-85 0
25 72 c13 39 24 84 24 99 0 60 14 58 -495 52 l-465 -6 0 52 c0 46 3 53 26 61
15 6 204 10 468 10 330 0 445 3 454 12 9 9 12 76 12 238 0 162 -3 229 -12 238
-7 7 -42 12 -85 12 l-73 0 0 99 c0 77 -4 103 -16 115 -13 14 -63 16 -395 16
l-379 0 0 50 c0 45 3 52 26 60 15 6 205 10 470 10 428 0 445 1 461 19 23 28
162 409 163 447 0 40 -10 44 -121 44 -49 0 -89 1 -89 3 0 2 11 37 25 77 29 85
31 113 9 134 -14 14 -102 16 -817 16 l-802 1 290 104 c225 81 295 111 313 131
l23 27 -3 1173 c-2 645 1 1176 5 1181 5 4 71 10 147 13 116 4 142 8 157 23 16
16 18 43 21 255 2 147 -1 249 -7 265 -13 35 -38 44 -133 52 l-77 7 -7 69 c-4
39 -12 76 -19 83 -14 13 -617 26 -1246 26 -257 0 -300 -2 -313 -16z m1232
-1737 c-7 -12 -11 -29 -10 -37 2 -10 -1 -9 -9 4 -9 14 -8 20 0 26 7 4 11 11
10 16 -3 18 1 25 11 19 7 -4 6 -14 -2 -28z m-652 -44 c-10 -10 -19 5 -10 18 6
11 8 11 12 0 2 -7 1 -15 -2 -18z"/>
<path d="M8005 13434 c-15 -15 -16 -83 -11 -853 3 -460 6 -846 8 -858 2 -14
10 -23 21 -23 10 0 16 -4 12 -10 -3 -5 -11 -7 -19 -4 -7 3 -13 -1 -13 -8 -16
-485 -16 -483 1 -501 13 -13 35 -17 92 -17 l74 0 0 -84 c0 -69 4 -88 21 -110
l20 -26 329 0 329 0 21 27 c21 26 21 34 19 360 -1 244 -4 331 -13 326 -6 -4
-5 1 3 10 14 18 26 23 17 8 -3 -5 1 -11 9 -14 10 -4 12 -1 9 11 -5 14 -4 14 4
2 13 -17 6 -30 -14 -30 -8 0 -14 -2 -14 -4 0 -15 214 -472 223 -478 7 -4 26
-8 43 -8 30 0 34 -5 73 -87 70 -146 29 -133 418 -133 l334 0 24 25 c14 13 25
36 25 51 0 15 -88 211 -195 437 -107 226 -195 416 -195 422 0 8 22 14 58 17
142 12 265 101 313 228 l24 65 0 410 c0 406 0 411 -23 468 -38 92 -78 137
-159 177 -43 21 -76 44 -82 58 -26 54 -66 93 -129 124 l-67 33 -786 3 c-722 2
-788 1 -804 -14z m1095 -814 l0 -40 -105 0 c-102 0 -105 1 -105 23 0 48 17 55
128 56 l82 1 0 -40z m-193 -902 c-3 -8 -6 -5 -6 6 -1 11 2 17 5 13 3 -3 4 -12
1 -19z m-17 2 c0 -5 -2 -10 -4 -10 -3 0 -8 5 -11 10 -3 6 -1 10 4 10 6 0 11
-4 11 -10z m670 1 c0 -6 -4 -13 -10 -16 -5 -3 -10 1 -10 9 0 9 5 16 10 16 6 0
10 -4 10 -9z m18 -14 c-1 -2 3 -11 11 -20 7 -10 12 -17 10 -18 -37 -7 -40 -7
-29 6 8 9 8 15 0 20 -6 3 -8 11 -4 16 3 6 8 8 11 5 2 -2 3 -6 1 -9z m-902 -34
c-10 -10 -19 5 -10 18 6 11 8 11 12 0 2 -7 1 -15 -2 -18z"/>
<path d="M13617 13440 c-1263 -4 -1439 -7 -1447 -20 -6 -9 -10 -344 -10 -856
0 -692 2 -844 13 -853 8 -6 16 -9 18 -7 2 2 4 -7 4 -20 0 -13 -5 -24 -12 -24
-6 0 -9 9 -6 20 3 11 1 20 -5 20 -7 0 -11 -83 -12 -254 -1 -299 -5 -286 101
-286 l69 0 0 -57 c1 -76 15 -134 36 -150 26 -19 652 -19 678 0 10 7 22 33 27
58 4 24 8 401 9 837 l0 792 26 10 c14 6 58 10 98 10 l73 0 8 -462 c4 -255 7
-471 7 -480 0 -11 5 -15 14 -11 7 3 11 10 7 16 -3 6 -1 7 5 3 20 -12 13 -36
-10 -36 -19 0 -20 -2 -8 -10 9 -6 10 -10 3 -10 -9 0 -12 -61 -13 -235 -1 -280
-3 -275 104 -275 l64 0 3 -86 c4 -79 6 -87 32 -110 l28 -24 324 0 324 0 19 25
c18 23 19 53 24 850 3 454 8 829 12 833 4 4 52 9 106 10 l98 4 4 -466 c2 -395
5 -468 18 -476 8 -5 18 -6 22 -4 4 3 8 -5 8 -17 0 -12 -3 -19 -7 -16 -3 4 -13
-2 -21 -14 -11 -16 -15 -72 -20 -248 -6 -272 -10 -261 104 -261 l74 0 0 -88
c0 -140 -22 -132 366 -132 l321 0 22 24 22 23 6 1115 6 1116 -26 26 c-24 24
-33 26 -112 26 l-85 0 0 74 c0 81 -14 108 -53 104 -12 -2 -669 -5 -1460 -8z
m348 -1720 c-3 -5 -1 -10 5 -10 7 0 5 -6 -4 -15 -19 -20 -21 -19 -21 10 0 14
6 25 13 25 7 0 10 -4 7 -10z m1133 -25 c-27 -14 -33 -12 -25 9 4 9 14 12 27 9
21 -6 21 -6 -2 -18z m-2264 7 c-6 -4 -10 -17 -9 -29 1 -12 -2 -20 -7 -17 -10
6 -11 38 -1 47 3 4 11 7 17 7 8 0 8 -2 0 -8z m1646 -36 c0 -2 -7 -9 -15 -16
-13 -11 -14 -10 -9 4 5 14 24 23 24 12z"/>
<path d="M1966 13424 c-14 -14 -16 -105 -16 -851 0 -782 1 -838 18 -857 16
-20 16 -20 0 -7 -16 12 -18 11 -18 -7 0 -12 5 -24 12 -28 7 -4 8 -3 4 4 -5 8
-1 10 9 5 13 -4 14 -8 4 -14 -7 -4 -17 -5 -21 -3 -4 3 -8 -103 -8 -235 0 -284
-5 -271 106 -271 l74 0 0 -88 c0 -80 2 -91 23 -110 l23 -22 810 0 811 0 21 23
c27 29 182 464 182 511 0 18 -9 44 -19 57 -18 23 -26 24 -130 24 -61 0 -111 1
-111 1 0 1 7 20 15 43 16 45 16 62 0 73 -5 4 -10 17 -10 30 0 20 -5 23 -43 24
-35 1 -42 -2 -37 -14 5 -14 4 -14 -12 -1 -21 18 -88 25 -97 11 -3 -6 2 -13 11
-16 9 -4 20 -1 25 6 6 10 8 10 8 1 0 -16 26 -17 33 -3 3 6 4 5 3 -2 -2 -9 -23
-14 -59 -15 -48 -1 -57 1 -56 15 0 11 2 12 6 5 2 -7 9 -13 14 -13 4 0 6 7 3
15 -9 22 -110 21 -118 -1 -3 -8 -10 -12 -16 -9 -5 3 -10 2 -10 -3 0 -5 -7 -9
-15 -9 -11 0 -12 3 -3 14 6 8 17 12 25 9 7 -3 13 -1 13 4 0 18 -45 10 -58 -10
-7 -12 -23 -20 -40 -20 -21 0 -24 2 -12 10 12 8 11 10 -7 10 -13 0 -23 -5 -23
-11 0 -5 -5 -7 -12 -3 -7 5 -5 11 7 21 22 15 12 17 -16 3 -14 -8 -19 -7 -19 2
0 9 -3 9 -9 -2 -6 -8 -7 -18 -5 -22 3 -4 1 -8 -5 -8 -5 0 -12 9 -16 19 -5 17
-16 19 -94 19 -69 0 -88 -3 -88 -15 0 -7 5 -12 11 -10 6 2 20 1 31 -3 14 -6 7
-8 -22 -7 -24 1 -43 5 -43 9 0 5 -8 8 -17 9 -12 1 -10 4 7 9 17 6 2 8 -52 9
-43 1 -78 -1 -78 -4 0 -3 12 -10 27 -16 19 -7 28 -6 34 2 8 13 39 5 39 -10 0
-5 -22 -9 -50 -8 -50 1 -72 19 -50 41 5 5 10 18 10 28 0 11 11 23 26 28 15 6
201 10 458 10 335 0 436 3 450 13 28 21 36 81 36 287 0 192 -8 262 -30 284 -6
6 -52 13 -103 16 l-92 5 -5 78 c-3 54 -10 81 -20 87 -9 6 -163 10 -367 10
l-353 0 0 25 c0 18 7 28 26 35 15 6 201 10 459 10 398 0 435 1 454 18 15 11
51 95 107 246 121 328 118 346 -61 346 -66 0 -105 4 -105 10 0 6 7 27 15 47
19 46 19 87 -1 107 -14 14 -109 16 -899 16 -790 0 -885 -2 -899 -16z m674
-1714 c0 -26 -12 -31 -26 -12 -19 24 -17 31 6 29 11 -1 20 -8 20 -17z m78 8
c-3 -15 -19 -28 -33 -28 -5 0 -3 5 5 10 12 8 12 10 -5 11 -17 1 -16 2 5 9 14
4 26 8 28 9 1 1 1 -5 0 -11z m38 0 c4 -6 3 -8 -4 -4 -6 3 -13 -2 -15 -11 -4
-14 -5 -13 -6 5 -1 23 13 30 25 10z m47 4 c3 7 4 3 4 -9 -1 -17 -7 -22 -24
-21 -15 2 -19 6 -13 14 6 6 6 15 2 20 -4 4 0 3 10 -4 13 -10 17 -10 21 0z m28
-19 c-12 -20 -14 -14 -5 12 4 9 9 14 11 11 3 -2 0 -13 -6 -23z m317 13 c-2 -1
-10 -7 -19 -14 -13 -10 -18 -10 -22 0 -3 8 5 14 20 14 13 1 23 1 21 0z m36
-17 c-8 -14 -24 -10 -24 6 0 9 6 12 15 9 8 -4 12 -10 9 -15z m322 9 c4 -7 3
-8 -4 -4 -7 4 -12 3 -12 -2 0 -5 -14 -9 -30 -10 -17 0 -28 4 -24 9 3 5 9 7 14
4 5 -3 11 -1 15 5 8 14 32 13 41 -2z m213 0 c11 -10 13 -10 7 0 -4 6 -2 12 3
12 6 0 11 -7 11 -15 0 -19 -21 -19 -46 0 -15 11 -16 14 -3 15 8 0 21 -6 28
-12z"/>
<path d="M4086 13424 c-9 -8 -16 -27 -16 -41 0 -23 133 -281 431 -840 l119
-222 -95 -180 c-180 -343 -204 -396 -202 -438 2 -45 -12 -68 -28 -46 -9 12
-36 -31 -128 -199 -64 -118 -117 -224 -117 -236 0 -43 24 -52 136 -52 l104 0
-30 -56 c-37 -69 -39 -112 -7 -142 23 -22 29 -22 343 -22 270 0 323 2 341 15
12 9 52 73 89 143 37 70 80 149 95 176 l27 49 37 -74 c42 -82 48 -89 87 -89
23 0 32 -11 75 -91 73 -139 40 -129 419 -129 l323 0 20 26 c41 52 63 2 -290
666 -137 258 -249 473 -249 479 0 5 122 239 270 519 288 542 293 555 247 598
-21 20 -34 22 -135 22 l-112 0 25 50 c29 57 32 92 9 114 -13 14 -57 16 -330
16 -290 0 -315 -1 -332 -18 -10 -10 -49 -77 -86 -148 -38 -71 -73 -135 -79
-142 -8 -10 -18 2 -44 48 -39 69 -55 80 -117 80 l-45 0 -42 78 c-23 42 -49 83
-57 90 -12 9 -93 12 -328 12 -271 0 -315 -2 -328 -16z m903 -1709 c5 2 13 -8
20 -23 10 -23 10 -25 -2 -10 -13 17 -16 16 -41 -7 -21 -20 -26 -21 -26 -7 0
20 20 54 20 35 0 -7 4 -13 9 -13 5 0 7 10 5 23 -2 12 -2 16 2 9 3 -6 9 -10 13
-7z m672 -17 c9 -16 8 -19 -2 -13 -9 6 -11 3 -6 -8 8 -22 -8 -31 -22 -13 -9
11 -9 15 1 19 8 4 9 8 3 14 -5 4 -11 13 -12 20 -4 19 26 4 38 -19z"/>
<path d="M10096 13424 c-14 -14 -16 -104 -16 -847 0 -458 3 -843 7 -855 4 -18
8 -21 15 -10 7 9 8 8 4 -6 -4 -11 -1 -23 6 -27 10 -7 10 -11 0 -21 -9 -8 -12
-9 -10 -2 2 7 -1 14 -7 15 -6 3 -11 -82 -13 -238 -3 -285 -7 -273 99 -273 l69
0 0 -57 c1 -76 15 -134 36 -150 14 -10 186 -13 825 -13 l808 0 25 23 c29 26
186 457 186 511 0 19 -9 44 -19 57 -18 23 -26 24 -130 24 -61 0 -111 0 -111 1
0 0 7 22 17 49 12 36 13 50 5 53 -7 2 -9 8 -6 14 4 5 1 20 -6 33 -12 22 -16
23 -171 23 -92 0 -159 -4 -159 -10 0 -5 5 -6 11 -2 7 4 10 1 7 -7 -3 -8 -13
-16 -22 -17 -14 -3 -16 1 -12 15 6 18 -3 19 -151 21 -95 1 -161 -3 -169 -9 -8
-7 -14 -6 -20 2 -5 8 -11 4 -21 -12 -13 -23 -14 -23 -8 -1 6 19 3 22 -25 22
-26 0 -31 -3 -28 -18 5 -16 -1 -19 -38 -19 -24 -1 -44 3 -44 8 0 4 6 6 14 3 8
-3 17 -1 21 5 3 6 12 11 18 11 7 0 6 -4 -3 -11 -12 -9 -12 -10 -1 -7 8 3 16 9
18 15 2 6 -18 10 -52 10 -42 0 -55 -3 -55 -15 0 -12 3 -12 15 -2 12 10 15 10
15 -2 0 -11 -12 -15 -45 -14 -34 0 -45 4 -44 16 0 10 2 11 6 2 7 -18 63 24 63
49 0 12 10 23 26 29 15 6 201 10 458 10 l433 0 21 23 c21 23 22 30 22 278 0
254 0 256 -23 277 -20 19 -35 22 -110 22 l-87 0 0 74 c0 54 -4 79 -16 90 -13
14 -61 16 -370 16 l-354 0 0 25 c0 18 7 28 26 35 15 6 201 10 459 10 397 0
435 1 454 18 27 21 190 461 191 513 0 24 -7 42 -23 57 -21 20 -34 22 -125 22
-56 0 -102 4 -102 9 0 5 7 28 15 51 19 54 19 85 -1 104 -14 14 -109 16 -899
16 -790 0 -885 -2 -899 -16z m670 -1705 c3 -6 15 -9 25 -6 11 3 19 1 19 -5 0
-5 5 -6 10 -3 6 4 8 11 5 16 -4 5 -2 9 3 9 6 0 12 -7 16 -15 3 -8 10 -15 16
-15 6 0 9 4 6 9 -4 5 4 7 16 3 16 -4 19 -2 13 9 -7 11 -5 11 9 -1 17 -13 16
-15 -14 -23 -21 -5 -36 -4 -46 4 -10 8 -14 8 -14 0 0 -6 -13 -9 -32 -7 -18 2
-41 -1 -50 -6 -19 -9 -23 -1 -12 26 7 19 20 21 30 5z m481 -21 c-3 -8 -6 -5
-6 6 -1 11 2 17 5 13 3 -3 4 -12 1 -19z m47 7 c-3 -8 -12 -11 -20 -8 -20 7
-17 18 5 20 13 1 18 -3 15 -12z m104 6 c6 0 12 -6 12 -11 0 -6 -11 -8 -27 -4
-15 4 -33 7 -40 7 -7 0 -10 3 -8 7 3 4 15 6 27 5 13 -1 29 -3 36 -4z m54 0 c5
14 28 4 28 -12 0 -13 -38 -5 -53 11 -10 12 -9 12 5 2 12 -10 17 -10 20 -1z
m198 -19 c-17 -6 -42 7 -35 18 4 6 13 5 26 -3 10 -6 15 -13 9 -15z m164 19
c-5 -6 -17 -9 -64 -15 -19 -3 -29 -3 -22 0 6 3 10 9 8 13 -2 3 15 6 39 6 24 0
41 -2 39 -4z m66 -23 c0 -7 -5 -6 -13 1 -8 6 -17 8 -21 4 -4 -4 -4 0 0 10 5
14 9 15 20 6 8 -6 14 -16 14 -21z"/>
<path d="M15396 13424 c-15 -14 -16 -103 -16 -887 1 -718 3 -868 14 -848 11
19 14 21 19 7 3 -8 1 -18 -5 -22 -7 -4 -6 -10 3 -16 11 -6 9 -8 -6 -6 -19 3
-20 -3 -23 -229 -3 -274 -7 -263 99 -263 l69 0 0 -57 c1 -76 15 -134 36 -150
14 -10 186 -13 825 -13 l808 0 25 23 c29 26 186 457 186 511 0 19 -9 44 -19
57 -18 23 -26 24 -130 24 -61 0 -111 1 -111 1 0 1 7 21 15 44 19 53 20 89 3
72 -7 -7 -17 -12 -22 -12 -6 0 -5 4 2 9 11 6 10 11 -3 25 -9 9 -12 16 -6 16 6
0 11 5 11 10 0 6 -9 10 -19 10 -14 0 -18 -5 -14 -20 3 -11 0 -20 -6 -20 -6 0
-11 5 -11 11 0 6 -8 8 -17 5 -17 -6 -17 -5 -1 7 16 13 15 14 -14 15 -23 1 -28
-2 -18 -8 11 -7 12 -10 2 -10 -7 0 -10 -4 -7 -10 3 -6 -4 -9 -19 -8 -13 1 -23
5 -20 9 9 15 -35 23 -123 24 -66 1 -94 -2 -97 -11 -3 -9 1 -11 12 -8 14 5 15
4 2 -5 -8 -5 -40 -10 -70 -9 -30 1 -46 3 -35 6 11 2 23 9 27 16 6 8 8 7 8 -1
0 -18 25 -16 40 3 12 13 8 15 -28 13 -23 -2 -38 -7 -35 -12 4 -6 1 -7 -8 -1
-8 5 -30 9 -49 10 -19 1 -29 0 -23 -3 10 -3 10 -8 -1 -19 -20 -19 -26 -18 -26
6 0 11 -5 20 -11 20 -6 0 -9 -8 -7 -18 5 -16 -1 -18 -43 -18 -78 1 -69 12 14
16 9 1 17 5 17 10 0 5 -50 8 -111 7 -68 0 -104 -4 -94 -9 8 -5 21 -6 28 -2 8
5 7 2 -2 -9 -7 -9 -21 -17 -30 -17 -12 0 -13 2 -3 9 11 6 10 10 -5 16 -25 11
-29 12 -57 14 -19 1 -22 5 -18 27 3 15 14 29 29 35 14 5 216 9 457 9 l433 0
21 23 c21 23 22 30 22 278 0 254 0 256 -23 277 -20 19 -35 22 -110 22 l-87 0
0 74 c0 54 -4 79 -16 90 -13 14 -61 16 -370 16 l-354 0 0 25 c0 18 7 28 26 35
15 6 201 10 459 10 397 0 435 1 454 18 27 21 190 461 191 513 0 24 -7 42 -23
57 -21 20 -34 22 -125 22 -56 0 -102 4 -102 9 0 5 7 28 15 51 19 54 19 85 -1
104 -14 14 -109 16 -899 16 -794 0 -885 -2 -899 -16z m661 -1701 c-4 -3 -2
-11 3 -18 7 -8 5 -12 -4 -12 -8 0 -12 7 -11 16 5 22 4 21 12 21 3 0 3 -3 0 -7z
m81 -5 c9 -9 12 -9 12 3 1 10 5 9 15 -5 11 -14 15 -16 15 -5 0 10 14 15 45 17
37 2 45 -1 45 -15 0 -15 -2 -16 -10 -3 -8 13 -14 8 -12 -11 1 -3 -5 -6 -13 -6
-7 0 -11 6 -8 14 5 13 -17 10 -42 -7 -5 -3 -14 -6 -20 -6 -14 1 -62 36 -49 36
5 0 15 -5 22 -12z m-36 -13 c0 -5 -5 -10 -11 -11 -8 -2 -7 -1 0 3 8 4 7 8 -2
15 -11 8 -11 9 -1 6 8 -2 14 -8 14 -13z m208 6 c0 -5 -7 -12 -16 -15 -14 -5
-15 -4 -4 9 14 17 20 19 20 6z m180 0 c8 -2 -24 -21 -36 -21 -6 0 -11 6 -11
13 0 11 16 14 47 8z m422 -11 c9 0 9 3 -2 10 -18 11 -3 12 25 1 18 -7 18 -8
-5 -14 -34 -8 -63 -3 -68 12 -3 10 0 10 16 2 11 -6 27 -11 34 -11z m-552 -6
c0 -2 -9 -4 -20 -4 -11 0 -20 4 -20 9 0 5 9 7 20 4 11 -3 20 -7 20 -9z m635 6
c18 -8 17 -9 -7 -9 -16 -1 -28 4 -28 9 0 12 8 12 35 0z"/>
<path d="M3316 11715 c25 -19 35 -19 28 0 -4 8 -16 15 -27 15 -20 0 -20 0 -1
-15z"/>
<path d="M17020 11720 c20 -13 33 -13 25 0 -3 6 -14 10 -23 10 -15 0 -15 -2
-2 -10z"/>
<path d="M4302 11697 c-8 -9 -8 -17 0 -27 8 -13 9 -12 5 1 -3 9 0 22 6 28 6 6
8 11 5 11 -3 0 -10 -6 -16 -13z"/>
<path d="M17175 11700 c3 -5 11 -10 16 -10 6 0 7 5 4 10 -3 6 -11 10 -16 10
-6 0 -7 -4 -4 -10z"/>
<path d="M9707 10048 c-18 -14 -68 -143 -239 -623 -224 -631 -238 -673 -222
-686 12 -10 15 -10 12 1 -2 7 2 14 9 17 7 3 10 -3 6 -16 -3 -10 -16 -22 -29
-25 -30 -8 -33 -15 -153 -335 -135 -359 -201 -546 -201 -569 0 -44 23 -52 155
-52 l123 0 -21 -65 c-34 -105 -50 -100 293 -103 256 -2 295 0 311 14 9 8 32
57 50 108 l33 93 23 -23 c22 -22 32 -24 118 -24 l95 0 0 -63 c0 -40 5 -70 16
-85 l15 -22 608 0 c459 0 610 3 619 12 7 7 12 22 12 33 0 33 -729 2157 -747
2177 -8 9 -33 18 -55 20 l-40 3 -38 104 c-21 57 -44 108 -52 112 -22 15 -681
11 -701 -3z m532 -1513 c33 -109 59 -200 57 -202 -2 -2 -64 -2 -138 -1 l-134
3 68 190 c84 235 78 219 82 214 3 -2 32 -94 65 -204z m-9 185 c0 -5 -2 -10 -4
-10 -3 0 -8 5 -11 10 -3 6 -1 10 4 10 6 0 11 -4 11 -10z"/>
<path d="M2656 10035 c-14 -15 -16 -83 -16 -646 0 -496 3 -629 13 -629 8 0 7
-4 -3 -10 -13 -8 -12 -10 3 -10 10 0 17 -7 16 -17 0 -11 -3 -13 -6 -5 -18 46
-23 -46 -23 -463 0 -408 2 -465 16 -479 12 -12 37 -16 108 -16 l93 0 5 -70 c3
-38 11 -77 18 -85 11 -13 106 -15 771 -15 748 0 759 0 815 21 72 27 131 80
160 144 l24 50 0 882 c0 858 -1 884 -20 936 -26 68 -60 115 -111 149 -30 20
-50 46 -74 95 -38 79 -80 123 -150 155 l-50 23 -787 3 c-708 2 -788 1 -802
-13z m1098 -987 c8 -303 8 -286 0 -525 l-7 -183 -123 0 -124 0 0 449 c0 247 3
462 6 479 8 38 13 39 140 41 l101 1 7 -262z"/>
<path d="M4745 10033 c-16 -15 -17 -67 -13 -629 l3 -612 23 -24 c12 -14 22
-31 21 -39 0 -10 -2 -9 -7 3 -5 12 -11 15 -22 8 -13 -8 -15 -75 -19 -478 -3
-428 -2 -470 14 -485 13 -14 36 -17 116 -17 l99 0 0 -66 c0 -112 -25 -104 320
-104 298 0 299 0 311 22 9 16 10 115 7 372 l-5 351 23 -50 c13 -27 74 -156
134 -284 61 -129 116 -238 123 -243 6 -4 39 -8 73 -8 l60 0 30 -62 c16 -34 37
-72 47 -85 l18 -23 303 0 c309 0 326 2 326 39 0 8 -92 209 -205 446 -113 237
-205 439 -205 448 0 14 11 17 73 17 111 0 189 30 257 99 94 95 94 96 98 524 3
310 1 377 -13 430 -21 83 -61 145 -115 182 -36 23 -53 47 -85 110 -33 65 -49
86 -88 112 -97 65 -72 63 -918 63 -704 0 -769 -1 -784 -17z m1097 -793 l3 -70
-117 0 c-64 0 -123 3 -132 6 -12 5 -16 20 -16 60 0 69 8 73 152 73 l106 1 4
-70z"/>
<path d="M12822 10040 c-1206 -4 -1374 -7 -1382 -20 -6 -9 -10 -260 -10 -647
1 -505 3 -633 14 -642 7 -6 17 -7 21 -3 5 4 5 1 1 -6 -5 -7 -14 -11 -22 -8
-12 5 -14 -65 -14 -459 0 -408 2 -465 16 -479 12 -12 37 -16 108 -16 l93 0 5
-70 c3 -38 11 -77 18 -85 11 -13 56 -15 305 -15 260 0 294 2 306 17 12 13 14
161 17 850 l3 834 25 9 c14 6 69 10 123 10 l98 0 7 -72 c3 -40 6 -164 7 -275
0 -115 5 -205 10 -209 5 -3 6 -11 2 -17 -13 -20 -13 -30 -19 -487 -5 -390 -4
-447 9 -465 13 -17 30 -20 116 -23 l101 -4 0 -62 c0 -39 6 -69 16 -84 15 -22
16 -22 314 -22 275 0 300 1 308 18 5 9 12 381 14 850 3 458 9 836 13 840 3 4
62 8 129 10 l123 4 7 -262 c5 -205 10 -267 22 -285 14 -21 10 -60 -6 -50 -14
9 -20 -150 -20 -536 0 -339 2 -390 16 -403 12 -12 38 -16 115 -16 l99 0 0 -73
c0 -43 5 -78 12 -85 19 -19 591 -17 607 2 9 10 13 302 18 1093 l6 1080 -21 21
c-18 18 -34 22 -87 22 l-65 0 0 99 c0 129 -2 132 -118 129 -48 -2 -705 -5
-1460 -8z m925 -1272 c-3 -8 -6 -5 -6 6 -1 11 2 17 5 13 3 -3 4 -12 1 -19z
m-2277 -8 c0 -5 -5 -10 -11 -10 -5 0 -7 5 -4 10 3 6 8 10 11 10 2 0 4 -4 4
-10z m1125 -40 c3 -6 -1 -7 -9 -4 -18 7 -21 14 -7 14 6 0 13 -4 16 -10z"/>
<path d="M14869 10035 c-96 -30 -162 -94 -199 -192 -19 -51 -20 -78 -20 -510
l0 -455 27 -60 c16 -37 31 -57 39 -54 8 3 11 0 8 -8 -3 -8 -1 -17 5 -21 6 -3
11 -2 11 3 0 5 7 9 15 9 10 0 13 -7 9 -24 -6 -21 1 -27 63 -55 49 -23 73 -40
82 -59 18 -41 74 -93 127 -120 48 -24 53 -24 386 -27 250 -2 337 -6 340 -15 3
-7 3 -33 0 -58 l-4 -46 -141 -6 c-78 -4 -321 -7 -539 -7 -446 0 -435 2 -425
-69 7 -57 165 -475 184 -488 9 -8 46 -13 84 -13 l67 0 27 -70 c15 -39 34 -78
42 -86 14 -14 90 -15 687 -12 599 4 677 6 723 21 80 27 133 72 171 147 l33 65
-3 450 -3 450 -29 63 c-28 61 -84 122 -130 143 -14 7 -29 29 -40 57 -29 80
-66 124 -136 162 l-65 35 -358 3 -358 3 3 52 3 52 455 7 c420 7 456 9 473 26
17 18 151 371 163 432 11 51 -6 60 -112 60 -52 0 -94 4 -94 9 0 6 11 41 25 79
29 81 31 105 9 126 -14 14 -98 16 -787 15 -634 0 -780 -3 -818 -14z"/>
<path d="M13710 8755 c0 -8 4 -15 10 -15 5 0 7 7 4 15 -4 8 -8 15 -10 15 -2 0
-4 -7 -4 -15z"/>
<path d="M3100 7090 l0 -40 6495 0 6495 0 0 40 0 40 -6495 0 -6495 0 0 -40z"/>
<path d="M12991 6804 c-21 -15 -21 -21 -21 -298 0 -206 3 -285 12 -294 17 -17
65 -15 72 4 9 23 7 567 -2 580 -13 19 -39 23 -61 8z"/>
<path d="M11226 6794 c-3 -9 -6 -139 -6 -289 0 -150 3 -280 6 -289 7 -19 55
-21 72 -4 9 9 12 88 12 293 0 205 -3 284 -12 293 -17 17 -65 15 -72 -4z"/>
<path d="M12105 6798 c-3 -7 -4 -144 -3 -303 l3 -290 35 0 35 0 0 300 0 300
-33 3 c-20 2 -34 -2 -37 -10z"/>
<path d="M6137 6788 c-16 -12 -17 -40 -15 -308 l3 -295 35 0 35 0 3 295 c2
268 1 296 -15 308 -9 6 -20 12 -23 12 -3 0 -14 -6 -23 -12z"/>
<path d="M7006 6784 c-14 -13 -16 -54 -16 -298 0 -296 1 -306 45 -306 44 0 45
9 45 312 0 274 -1 288 -19 298 -27 14 -37 13 -55 -6z"/>
<path d="M7887 6788 c-16 -12 -17 -40 -15 -308 l3 -295 35 0 35 0 3 295 c2
268 1 296 -15 308 -9 6 -20 12 -23 12 -3 0 -14 -6 -23 -12z"/>
<path d="M11486 6704 c-14 -13 -16 -57 -16 -323 0 -323 1 -331 45 -331 44 0
45 8 45 331 0 266 -2 310 -16 323 -8 9 -22 16 -29 16 -7 0 -21 -7 -29 -16z"/>
<path d="M12368 6709 c-17 -9 -18 -36 -18 -329 0 -310 1 -319 20 -325 11 -3
29 -3 40 0 19 6 20 15 20 325 0 305 -1 320 -19 330 -23 12 -22 12 -43 -1z"/>
<path d="M13237 6702 c-15 -16 -17 -54 -17 -323 0 -321 1 -329 45 -329 44 0
45 8 45 331 0 266 -2 310 -16 323 -20 21 -37 20 -57 -2z"/>
<path d="M6382 6688 c-9 -9 -12 -95 -12 -324 0 -339 1 -344 55 -330 l25 6 0
318 c0 327 -2 342 -40 342 -9 0 -21 -5 -28 -12z"/>
<path d="M7256 6684 c-14 -13 -16 -56 -16 -319 0 -263 2 -306 16 -319 18 -19
45 -21 62 -4 9 9 12 95 12 325 0 299 -1 313 -19 323 -27 14 -37 13 -55 -6z"/>
<path d="M8138 6689 c-17 -9 -18 -35 -18 -323 0 -341 1 -346 55 -332 l25 6 0
324 c0 286 -2 325 -16 330 -21 8 -26 7 -46 -5z"/>
<path d="M11106 6648 c-14 -19 -16 -63 -16 -278 0 -215 2 -259 16 -278 17 -24
43 -29 62 -10 9 9 12 87 12 290 0 264 -1 278 -19 288 -28 15 -38 13 -55 -12z"/>
<path d="M11986 6654 c-14 -13 -16 -53 -16 -284 0 -231 2 -271 16 -284 8 -9
22 -16 29 -16 7 0 21 7 29 16 14 13 16 53 16 284 0 231 -2 271 -16 284 -8 9
-22 16 -29 16 -7 0 -21 -7 -29 -16z"/>
<path d="M12861 6656 c-8 -9 -11 -95 -9 -291 3 -252 5 -279 21 -289 12 -8 22
-8 35 0 15 10 17 37 20 289 2 287 0 305 -38 305 -10 0 -23 -6 -29 -14z"/>
<path d="M8914 6636 c-3 -14 -4 -99 -2 -188 3 -144 6 -168 26 -204 34 -66 81
-89 177 -89 98 0 138 20 175 86 23 41 25 56 28 206 5 195 2 215 -36 211 l-27
-3 -5 -185 c-5 -201 -12 -224 -66 -248 -35 -17 -100 -15 -138 3 -56 27 -61 42
-66 245 l-5 185 -27 3 c-22 3 -29 -2 -34 -22z"/>
<path d="M9490 6637 c-56 -30 -83 -77 -77 -137 8 -69 50 -102 168 -129 51 -12
101 -29 111 -38 39 -35 11 -104 -48 -119 -44 -11 -142 3 -181 26 -32 19 -38
19 -51 6 -8 -8 -12 -22 -8 -31 10 -27 95 -58 171 -62 59 -4 77 -1 114 19 61
31 86 68 85 124 -2 73 -39 101 -174 133 -44 10 -90 27 -100 36 -29 26 -26 80
5 110 20 21 34 25 87 25 45 0 75 -6 102 -21 44 -23 69 -19 64 13 -2 14 -19 30
-47 45 -61 32 -160 32 -221 0z"/>
<path d="M10022 6643 c-48 -95 -203 -467 -198 -478 3 -8 15 -15 26 -15 16 0
28 15 50 65 l29 65 126 0 126 0 26 -60 c25 -57 50 -79 73 -65 5 3 10 12 10 19
0 7 -46 118 -103 247 -94 213 -106 234 -130 237 -17 2 -29 -3 -35 -15z m82
-178 c25 -60 46 -113 46 -117 0 -5 -43 -8 -95 -8 -52 0 -95 3 -95 8 0 8 94
231 96 229 1 -1 23 -51 48 -112z"/>
<path d="M6002 6638 c-9 -9 -12 -85 -12 -279 0 -147 3 -274 6 -283 4 -10 18
-16 39 -16 21 0 35 6 39 16 3 9 6 136 6 283 0 280 -2 291 -45 291 -12 0 -26
-5 -33 -12z"/>
<path d="M6881 6636 c-8 -9 -11 -95 -9 -292 l3 -279 35 0 35 0 3 284 c2 296 2
300 -39 301 -9 0 -22 -6 -28 -14z"/>
<path d="M7750 6631 c-6 -12 -10 -121 -10 -284 0 -289 1 -292 57 -285 l28 3 3
279 c2 197 -1 283 -9 292 -17 20 -57 17 -69 -5z"/>
<path d="M11362 6552 c-9 -7 -12 -74 -10 -303 l3 -294 35 0 35 0 3 289 c2 205
-1 293 -9 302 -13 16 -37 18 -57 6z"/>
<path d="M12232 6548 c-9 -9 -12 -88 -12 -293 0 -295 1 -305 45 -305 44 0 45
10 45 305 0 295 -1 305 -45 305 -12 0 -26 -5 -33 -12z"/>
<path d="M13111 6547 c-8 -11 -11 -93 -9 -303 l3 -289 35 0 35 0 0 300 0 300
-26 3 c-14 2 -31 -3 -38 -11z"/>
<path d="M6252 6528 c-9 -9 -12 -88 -12 -293 0 -295 1 -305 45 -305 44 0 45
10 45 305 0 295 -1 305 -45 305 -12 0 -26 -5 -33 -12z"/>
<path d="M7127 6534 c-4 -4 -7 -139 -7 -300 l0 -294 25 -6 c57 -14 56 -21 53
303 l-3 298 -30 3 c-17 2 -34 0 -38 -4z"/>
<path d="M8000 6521 c-6 -12 -10 -122 -10 -286 0 -164 4 -274 10 -286 12 -21
50 -25 68 -7 9 9 12 87 12 289 0 153 -3 284 -6 293 -9 23 -61 21 -74 -3z"/>
<path d="M10862 6522 c-9 -7 -12 -43 -10 -148 l3 -139 35 0 35 0 3 134 c3 137
-3 161 -37 161 -9 0 -22 -4 -29 -8z"/>
<path d="M11738 6519 c-16 -9 -18 -27 -18 -137 0 -134 5 -152 45 -152 39 0 45
18 45 146 0 98 -3 126 -16 138 -18 18 -32 20 -56 5z"/>
<path d="M12612 6522 c-9 -7 -12 -43 -10 -148 l3 -139 35 0 35 0 3 139 c3 143
0 156 -38 156 -8 0 -21 -4 -28 -8z"/>
<path d="M5752 6498 c-8 -8 -12 -53 -12 -138 0 -132 5 -150 45 -150 40 0 45
18 45 150 0 132 -5 150 -45 150 -12 0 -26 -5 -33 -12z"/>
<path d="M6632 6502 c-9 -7 -12 -43 -10 -148 l3 -139 35 0 35 0 3 139 c3 143
0 156 -38 156 -8 0 -21 -4 -28 -8z"/>
<path d="M7502 6498 c-8 -8 -12 -53 -12 -138 0 -132 5 -150 45 -150 40 0 45
18 45 150 0 132 -5 150 -45 150 -12 0 -26 -5 -33 -12z"/>
<path d="M11612 6502 c-9 -6 -12 -35 -10 -108 l3 -99 35 0 35 0 3 94 c3 96 -5
121 -37 121 -9 0 -22 -4 -29 -8z"/>
<path d="M12482 6498 c-8 -8 -12 -45 -12 -99 0 -79 2 -89 22 -103 19 -13 25
-14 43 -2 17 11 20 26 23 101 2 55 -1 92 -9 101 -14 17 -51 18 -67 2z"/>
<path d="M13362 6498 c-8 -8 -12 -44 -12 -105 0 -82 2 -93 20 -103 14 -8 26
-8 40 0 19 10 20 19 18 113 -3 101 -3 102 -28 105 -14 2 -31 -3 -38 -10z"/>
<path d="M6502 6478 c-7 -7 -12 -44 -12 -98 0 -91 8 -110 45 -110 37 0 45 19
45 110 0 91 -8 110 -45 110 -12 0 -26 -5 -33 -12z"/>
<path d="M7375 6477 c-3 -7 -4 -56 -3 -108 l3 -94 33 -3 c43 -4 50 18 43 128
l-6 85 -33 3 c-20 2 -34 -2 -37 -11z"/>
<path d="M8250 6471 c-5 -11 -10 -52 -10 -91 0 -82 11 -110 43 -110 39 0 47
18 47 110 0 54 -5 91 -12 98 -18 18 -56 14 -68 -7z"/>
<path d="M10982 6478 c-7 -7 -12 -42 -12 -88 0 -81 9 -100 47 -100 31 0 43 28
43 100 0 34 -5 70 -10 81 -12 21 -50 25 -68 7z"/>
<path d="M11861 6476 c-8 -9 -11 -45 -9 -98 l3 -83 35 0 35 0 3 83 c3 87 -5
112 -38 112 -10 0 -23 -6 -29 -14z"/>
<path d="M12732 6478 c-7 -7 -12 -42 -12 -88 0 -80 9 -100 45 -100 36 0 45 20
45 100 0 80 -9 100 -45 100 -12 0 -26 -5 -33 -12z"/>
<path d="M5877 6464 c-4 -4 -7 -47 -7 -96 0 -96 6 -106 55 -94 26 7 26 7 23
99 l-3 92 -30 3 c-17 2 -34 0 -38 -4z"/>
<path d="M6752 6458 c-15 -15 -16 -142 -2 -169 12 -21 50 -25 68 -7 7 7 12 42
12 88 0 80 -9 100 -45 100 -12 0 -26 -5 -33 -12z"/>
<path d="M7627 6464 c-4 -4 -7 -47 -7 -95 0 -91 4 -99 51 -99 28 0 36 33 30
120 -6 75 -6 75 -36 78 -17 2 -34 0 -38 -4z"/>
</g>
</svg>
